<?xml version="1.0" encoding="utf-8"?>
<!-- Generator: Adobe Illustrator 22.0.1, SVG Export Plug-In . SVG Version: 6.00 Build 0)  -->
<svg version="1.1" id="Ebene_1" xmlns="http://www.w3.org/2000/svg" xmlns:xlink="http://www.w3.org/1999/xlink" x="0px" y="0px"
	 viewBox="0 0 182.6 58.6" style="enable-background:new 0 0 182.6 58.6;" xml:space="preserve">
<style type="text/css">
	.st0{fill:#FFC400;}
	.st1{fill:#ED9F11;}
	.st2{fill:#2B2A63;}
	.st3{fill:#4A4A9A;}
	.st4{fill:none;stroke:#201F50;stroke-width:1.4452;stroke-miterlimit:10;}
	.st5{fill:#201F50;}
	.st6{fill:none;stroke:#2B2A63;stroke-width:1.4452;stroke-miterlimit:10;}
	.st7{fill:#F6B108;}
	.st8{fill:#2B2C61;}
	.st9{fill:#EDEFF2;}
	.st10{fill:#404088;}
	.st11{fill:#5555AD;}
</style>
<g>
	<g>
		<path class="st0" d="M0.3,19.6V39c0,2.4,1.3,4.6,3.4,5.9l16.8,9.7c2.1,1.2,4.7,1.2,6.8,0l16.8-9.7c2.1-1.2,3.4-3.4,3.4-5.9V19.6
			c0-2.4-1.3-4.6-3.4-5.9L27.3,4c-2.1-1.2-4.7-1.2-6.8,0L3.7,13.7C1.6,14.9,0.3,17.2,0.3,19.6z"/>
	</g>
	<path class="st1" d="M44.1,13.7L27.3,4c-1.1-0.6-2.2-0.9-3.4-0.9v52.4c1.2,0,2.4-0.3,3.4-0.9l16.8-9.7c2.1-1.2,3.4-3.4,3.4-5.9
		V19.6C47.5,17.2,46.2,14.9,44.1,13.7z"/>
	<path class="st2" d="M38.8,35.2l-7.3-5.7l-3.6-7l0.3,4.4l-3.8-3l4.2,8.3l0.6,8.7l5.8,2.7l0,0c0.2,0.1,0.5,0.2,0.7,0.2h0.1
		c0.5,0,1-0.3,1.3-0.6c0.6-0.6,0.7-1.6,0.2-2.3L36,38.4l1.7,0.1l0,0l0,0c0.3,0,0.6-0.1,0.8-0.2c0.4-0.2,0.7-0.6,0.9-1
		C39.7,36.6,39.5,35.7,38.8,35.2z"/>
	<path class="st2" d="M23.8,24.1l-3.8,3l0.3-4.4l-3.6,7l-7.3,5.7c-0.6,0.5-0.9,1.3-0.7,2.1c0.2,0.4,0.5,0.8,0.9,1
		c0.2,0.1,0.5,0.2,0.8,0.2l0,0l1.7-0.1L10.8,41c-0.4,0.8-0.3,1.7,0.2,2.3c0.3,0.4,0.8,0.6,1.3,0.6h0.1c0.3,0,0.5-0.1,0.7-0.2
		l5.8-2.7l0.6-8.7L23.8,24.1z"/>
	<path class="st3" d="M10.6,24.2h8.7v-1H9.6l0,0C9.6,23.7,10,24.2,10.6,24.2z"/>
	<path class="st3" d="M9.6,23.2h9.7v-1h-8.7C10,22.2,9.6,22.6,9.6,23.2L9.6,23.2z"/>
	<polygon class="st2" points="22.3,45.3 23.9,48.1 23.9,48.1 25.5,45.3 	"/>
	<path class="st2" d="M29.7,44.8l-5.8,0.9l-5.8-0.9c-1.5-0.2-2.5-1.5-2.5-3V25.3h16.7v16.6C32.2,43.3,31.2,44.6,29.7,44.8z"/>
	<circle class="st2" cx="23.9" cy="25.3" r="9.1"/>
	<line class="st4" x1="30.6" y1="13.6" x2="29" y2="16.3"/>
	<circle class="st5" cx="30.6" cy="13.6" r="1.7"/>
	<circle class="st2" cx="17.1" cy="13.6" r="1.7"/>
	<line class="st6" x1="17.1" y1="13.6" x2="18.7" y2="16.3"/>
	<g>
		<rect x="15.6" y="39.5" class="st0" width="8.5" height="2.1"/>
		<rect x="23.9" y="39.5" class="st7" width="8.4" height="2.1"/>
	</g>
	<g>
		<rect x="15.6" y="35.7" class="st0" width="8.5" height="2.1"/>
		<rect x="23.9" y="35.7" class="st7" width="8.4" height="2.1"/>
	</g>
	<g>
		<rect x="15.6" y="31.9" class="st0" width="8.5" height="2.1"/>
		<rect x="23.9" y="31.9" class="st7" width="8.4" height="2.1"/>
	</g>
	<path class="st0" d="M27.9,30H20c-1.5,0-2.7-1.2-2.7-2.7v-2c0-0.9,0.8-1.7,1.7-1.7h10c0.9,0,1.7,0.8,1.7,1.7v2
		C30.5,28.8,29.3,30,27.9,30z"/>
	<path class="st7" d="M28.9,23.6h-5V30h4c1.5,0,2.7-1.2,2.7-2.7v-2C30.5,24.4,29.8,23.6,28.9,23.6z"/>
	<g>
		<circle class="st8" cx="19.8" cy="26.9" r="1.4"/>
	</g>
	<g>
		<circle class="st8" cx="27.9" cy="26.9" r="1.4"/>
	</g>
	<ellipse class="st2" cx="23.9" cy="22.6" rx="6.2" ry="4.4"/>
	<path class="st3" d="M22.3,14.4h3c4.5,0,8.1,3.6,8.1,8.1v0.7c0,0,0,0.1-0.1,0.1h-19v-0.7C14.3,18,17.9,14.4,22.3,14.4z"/>
	<circle class="st9" cx="23.9" cy="36.8" r="5.9"/>
	<path class="st10" d="M25.3,14.4h-1.5v8.8h9.5c0,0,0.1,0,0.1-0.1v-0.7C33.4,18,29.8,14.4,25.3,14.4z"/>
	<path class="st11" d="M25,37.2h-2V34c0-0.6,0.5-1,1-1l0,0c0.6,0,1,0.5,1,1V37.2z"/>
	<path class="st11" d="M22.9,37.6h5.3c0.4,0,0.8-0.4,0.8-0.8l0,0c0-0.4-0.4-0.8-0.8-0.8h-5.3V37.6z"/>
</g>
<g>
	<path class="st0" d="M70.2,23.4c0.9,0.4,1.6,1,2.1,1.7c0.5,0.7,0.9,1.6,1.1,2.6h-3.7c-0.2-0.5-0.5-0.9-1-1.2
		c-0.4-0.3-0.9-0.4-1.5-0.4c-0.8,0-1.4,0.3-1.9,0.9c-0.5,0.6-0.7,1.4-0.7,2.3c0,1,0.2,1.8,0.7,2.3c0.5,0.6,1.1,0.9,1.9,0.9
		c0.6,0,1.1-0.1,1.5-0.4c0.4-0.3,0.8-0.7,1-1.2h3.7c-0.3,1.5-1,2.7-2,3.6c-1.1,0.9-2.4,1.3-4.1,1.3c-1.3,0-2.4-0.3-3.3-0.8
		c-0.9-0.5-1.7-1.3-2.2-2.3c-0.5-1-0.8-2.1-0.8-3.4c0-1.3,0.3-2.4,0.8-3.4s1.2-1.7,2.2-2.3c0.9-0.5,2-0.8,3.3-0.8
		C68.4,22.8,69.4,23,70.2,23.4z"/>
	<path class="st0" d="M90.7,23v12.7h-3.5v-7.2l-2.4,7.2h-3l-2.4-7.2v7.2h-3.5V23h4.3l3.1,8.2l3-8.2H90.7z"/>
	<path class="st0" d="M97.1,25.7v2.1h4.1v2.7h-4.1v2.3h4.7v2.8h-8.2V22.9h8.2v2.8H97.1z"/>
	<path class="st0" d="M121.7,23v12.7h-1.3v-6h-6.9v6h-1.3V23h1.3v5.6h6.9V23H121.7z"/>
	<path class="st0" d="M134.3,23.7c0.9,0.6,1.7,1.3,2.2,2.3c0.5,1,0.8,2.1,0.8,3.3c0,1.2-0.3,2.4-0.8,3.4s-1.3,1.8-2.2,2.3
		c-0.9,0.6-2,0.8-3.2,0.8s-2.2-0.3-3.2-0.8c-0.9-0.6-1.7-1.3-2.2-2.3s-0.8-2.1-0.8-3.4c0-1.2,0.3-2.4,0.8-3.3c0.5-1,1.3-1.8,2.2-2.3
		c0.9-0.6,2-0.8,3.2-0.8S133.3,23.1,134.3,23.7z M128.6,24.6c-0.7,0.4-1.3,1.1-1.7,1.9c-0.4,0.8-0.6,1.7-0.6,2.8
		c0,1.1,0.2,2,0.6,2.8s1,1.4,1.7,1.9c0.7,0.4,1.6,0.6,2.5,0.6s1.8-0.2,2.5-0.6c0.7-0.4,1.3-1,1.7-1.9c0.4-0.8,0.6-1.7,0.6-2.8
		c0-1.1-0.2-2-0.6-2.8c-0.4-0.8-1-1.4-1.7-1.9S132,24,131.1,24S129.4,24.2,128.6,24.6z"/>
	<path class="st0" d="M147.3,35.7l-3.5-5.3h-2.1v5.3h-1.3V23h3.9c1.4,0,2.5,0.3,3.2,1c0.7,0.7,1.1,1.6,1.1,2.7
		c0,1.1-0.3,1.9-0.9,2.5c-0.6,0.6-1.5,1-2.6,1.1l3.6,5.3H147.3z M141.8,29.4h2.5c2,0,3.1-0.9,3.1-2.6c0-1.8-1-2.7-3.1-2.7h-2.5V29.4
		z"/>
	<path class="st0" d="M161.1,35.7h-1.3l-6.9-10.6v10.6h-1.3V23h1.3l6.9,10.6V23h1.3V35.7z"/>
	<path class="st0" d="M166,24v4.8h4.9v1H166v4.8h5.5v1h-6.8V23h6.8v1H166z"/>
	<path class="st0" d="M182.1,23v1h-3.6v11.7h-1.3V24h-3.6v-1H182.1z"/>
</g>
</svg>
