<?xml version="1.0" encoding="utf-8"?>
<!-- Generator: Adobe Illustrator 22.0.0, SVG Export Plug-In . SVG Version: 6.00 Build 0)  -->
<svg version="1.2" baseProfile="tiny" id="Ebene_1" xmlns="http://www.w3.org/2000/svg" xmlns:xlink="http://www.w3.org/1999/xlink"
	 x="0px" y="0px" viewBox="0 0 25 25" xml:space="preserve">
<path fill="#63A1FC" d="M12.5,3.5c-4.4199829,0-8,1.7900085-8,4c0,2.2100067,3.5800171,4,8,4s8-1.7899933,8-4
	C20.5,5.2900085,16.9199829,3.5,12.5,3.5 M4.5,9.5v3c0,2.2100067,3.5800171,4,8,4s8-1.7899933,8-4v-3c0,2.2100067-3.5800171,4-8,4
	S4.5,11.7100067,4.5,9.5 M4.5,14.5v3c0,2.2100067,3.5800171,4,8,4s8-1.7899933,8-4v-3c0,2.2100067-3.5800171,4-8,4
	S4.5,16.7100067,4.5,14.5z"/>
</svg>
