<?xml version="1.0" encoding="utf-8"?>
<!-- Generator: Adobe Illustrator 22.0.0, SVG Export Plug-In . SVG Version: 6.00 Build 0)  -->
<svg version="1.2" baseProfile="tiny" id="Ebene_1" xmlns="http://www.w3.org/2000/svg" xmlns:xlink="http://www.w3.org/1999/xlink"
	 x="0px" y="0px" viewBox="0 0 25 25" xml:space="preserve">
<path fill="#FFC400" d="M17.5,12.5l-5,5v-3h-4v-4h4v-3L17.5,12.5 M21.5,17c0,0.3800049-0.2099991,0.7100067-0.5300026,0.8800049
	l-7.8999977,4.4400024C12.9099998,22.4400024,12.7099991,22.5,12.5,22.5s-0.4099998-0.0599976-0.5699997-0.1799927
	l-7.9000015-4.4400024C3.7099991,17.7100067,3.5,17.3800049,3.5,17V8c0-0.3800049,0.2099991-0.7099915,0.5299988-0.8800049
	l7.9000015-4.4399872C12.0900002,2.5599976,12.2900009,2.5,12.5,2.5s0.4099998,0.0599976,0.5699997,0.1800079l7.8999977,4.4399872
	C21.2900009,7.2900085,21.5,7.6199951,21.5,8V17 M12.5,4.6500092l-7,3.9399872v7.8200073l7,3.9400024l7-3.9400024V8.5899963
	L12.5,4.6500092z"/>
</svg>
