<?xml version="1.0" encoding="utf-8"?>
<!-- Generator: Adobe Illustrator 22.0.0, SVG Export Plug-In . SVG Version: 6.00 Build 0)  -->
<svg version="1.2" baseProfile="tiny" id="Ebene_1" xmlns="http://www.w3.org/2000/svg" xmlns:xlink="http://www.w3.org/1999/xlink"
	 x="0px" y="0px" viewBox="0 0 25 25" xml:space="preserve">
<path fill="#BEC5CB" d="M4.5,4.5h16c1.1045532,0,2,0.8954239,2,2v12c0,1.1045685-0.8954468,2-2,2h-16c-1.1045532,0-2-0.8954315-2-2
	v-12C2.5,5.3954239,3.3954468,4.5,4.5,4.5 M4.5,6.5v12h7v-12H4.5 M20.5,18.5v-12h-1.2399902
	C19.5,7.0399933,19.4500122,7.5699997,19.4500122,7.6299973C19.3800049,8.2999954,18.9100342,9,18.7399902,9.25
	l-2.3299561,2.5499954l3.3199463-0.0199966L19.7399902,13l-5.1999512-0.0300064l-0.0400391-1
	c0,0,3.0499878-3.2299957,3.2000122-3.5199966C17.8400269,8.1699982,18.4100342,6.5,17,6.5
	c-1.2299805,0.0499954-1.0899658,1.2999954-1.0899658,1.2999954l-1.5400391,0.0100021c0,0,0.0100098-0.6600037,0.3800049-1.3099976
	H13.5v12h2.5800171l-0.0100098-0.8600006l0.9700317-0.0100021c0,0,0.9099731-0.1600037,0.9199829-1.0500031
	c0.039978-1-0.8099976-1-0.960022-1c-0.1300049,0-1.0700073,0.0500031-1.0700073,0.8700027h-1.5199585
	c0,0,0.039978-2.0599976,2.5899658-2.0599976c2.6000366,0,2.460022,2.0199966,2.460022,2.0199966s0.039978,1.25-1.1099854,1.7200012
	L18.8699951,18.5H20.5 M9.4199829,16.5h-1.5v-5.8000031l-1.7999878,0.5599976v-1.2299957L9.2600098,8.909996h0.1599731V16.5z"/>
</svg>
