<?xml version="1.0" encoding="utf-8"?>
<!-- Generator: Adobe Illustrator 22.0.0, SVG Export Plug-In . SVG Version: 6.00 Build 0)  -->
<svg version="1.2" baseProfile="tiny" id="Ebene_1" xmlns="http://www.w3.org/2000/svg" xmlns:xlink="http://www.w3.org/1999/xlink"
	 x="0px" y="0px" viewBox="0 0 25 25" xml:space="preserve">
<g>
	<path fill="#BEC5CB" d="M16.9782104,3.5436172c2.4732056,0,4.4781494,2.0049591,4.4781494,4.4781952
		s-2.0049438,4.4781952-4.4781494,4.4781952c-2.4732666,0-4.4782104-2.0049591-4.4782104-4.4781952
		S14.5049438,3.5436172,16.9782104,3.5436172 M5.3348999,9.8130875c-0.9892578,0-1.7912598-0.8019867-1.7912598-1.791275
		s0.802002-1.791275,1.7912598-1.791275h5.3738403v3.58255H5.3348999z"/>
	<path fill="#BEC5CB" d="M8.0217896,12.5000076c2.4732666,0,4.4782104,2.0049438,4.4782104,4.4781799
		s-2.0049438,4.4781952-4.4782104,4.4781952c-2.4732056,0-4.4781494-2.0049591-4.4781494-4.4781952
		S5.548584,12.5000076,8.0217896,12.5000076 M19.6651001,18.7694626h-5.3738403v-3.58255h5.3738403
		c0.9893188,0,1.7912598,0.8019867,1.7912598,1.791275C21.4563599,17.9674911,20.6544189,18.7694626,19.6651001,18.7694626
		 M8.0217896,14.2912827c-1.4838867,0-2.6868896,1.2029724-2.6868896,2.6869049
		c0,1.4839478,1.2030029,2.6869202,2.6868896,2.6869202c1.4839478,0,2.6869507-1.2029724,2.6869507-2.6869202
		C10.7087402,15.4942551,9.5057373,14.2912827,8.0217896,14.2912827z"/>
</g>
</svg>
