<?xml version="1.0" encoding="utf-8"?>
<!-- Generator: Adobe Illustrator 22.0.1, SVG Export Plug-In . SVG Version: 6.00 Build 0)  -->
<svg version="1.1" id="Ebene_1" xmlns="http://www.w3.org/2000/svg" xmlns:xlink="http://www.w3.org/1999/xlink" x="0px" y="0px"
	 viewBox="0 0 244.3 213.8" style="enable-background:new 0 0 244.3 213.8;" xml:space="preserve">
<style type="text/css">
	.st0{fill:#5A8EEB;}
</style>
<title>trace_solution</title>
<rect x="20.1" y="72" class="st0" width="40.2" height="4"/>
<path class="st0" d="M60.1,78.2c2.3,0,4.2-1.9,4.2-4.2c0-2.3-1.9-4.2-4.2-4.2c-2.3,0-4.2,1.9-4.2,4.2c0,0,0,0,0,0
	C55.9,76.3,57.8,78.2,60.1,78.2z"/>
<rect x="184" y="72" class="st0" width="40.2" height="4"/>
<path class="st0" d="M184.2,69.8c-2.3,0-4.2,1.9-4.2,4.2c0,2.3,1.9,4.2,4.2,4.2s4.2-1.9,4.2-4.2c0,0,0,0,0,0
	C188.4,71.7,186.5,69.8,184.2,69.8z"/>
<rect x="18" y="0" class="st0" width="4" height="213.8"/>
<rect x="222.1" y="0" class="st0" width="4" height="213.8"/>
</svg>
