<?xml version="1.0" encoding="utf-8"?>
<!-- Generator: Adobe Illustrator 22.0.1, SVG Export Plug-In . SVG Version: 6.00 Build 0)  -->
<svg version="1.1" id="Ebene_1" xmlns="http://www.w3.org/2000/svg" xmlns:xlink="http://www.w3.org/1999/xlink" x="0px" y="0px"
	 viewBox="0 0 244.3 213.8" style="enable-background:new 0 0 244.3 213.8;" xml:space="preserve">
<style type="text/css">
	.st0{fill:#5A8EEB;}
</style>
<title>trace_solution</title>
<rect x="0" y="77.3" class="st0" width="58.3" height="6"/>
<path class="st0" d="M58,86.6c3.5,0,6.3-2.8,6.3-6.3S61.4,74,58,74c-3.5,0-6.3,2.8-6.3,6.3c0,0,0,0,0,0C51.6,83.8,54.5,86.6,58,86.6
	z"/>
<rect x="185.9" y="77.3" class="st0" width="58.4" height="6"/>
<path class="st0" d="M186.2,74c-3.5,0-6.3,2.8-6.3,6.3s2.8,6.3,6.3,6.3c3.5,0,6.3-2.8,6.3-6.3c0,0,0,0,0,0
	C192.5,76.8,189.7,74,186.2,74z"/>
<rect x="18" y="80.3" class="st0" width="4" height="133.5"/>
<rect x="222.1" y="80.4" class="st0" width="4" height="133.5"/>
</svg>
