<svg xmlns="http://www.w3.org/2000/svg" viewBox="0 0 244.33076 213.78437"><defs><style>.a{fill:#5a8eeb;}</style></defs><title>trace_solution</title><path class="a" d="M60.27317,69.72547h-20.501A21.76107,21.76107,0,0,1,18.03586,47.98914V-.00011h4V47.98914A17.75587,17.75587,0,0,0,39.77219,65.72547h20.501Z"/><path class="a" d="M60.0626,63.51472a4.21094,4.21094,0,1,1-4.21082,4.21094A4.21146,4.21146,0,0,1,60.0626,63.51472Z"/><path class="a" d="M204.39915,69.72547h-20.501v-4h20.501a17.75586,17.75586,0,0,0,17.73632-17.73633V-.00011h4V47.98914A21.76107,21.76107,0,0,1,204.39915,69.72547Z"/><path class="a" d="M184.10874,71.93659a4.21094,4.21094,0,1,1,4.21082-4.21093A4.21137,4.21137,0,0,1,184.10874,71.93659Z"/></svg>