<?xml version="1.0" encoding="utf-8"?>
<!-- Generator: Adobe Illustrator 22.0.1, SVG Export Plug-In . SVG Version: 6.00 Build 0)  -->
<svg version="1.2" baseProfile="tiny" xmlns="http://www.w3.org/2000/svg" xmlns:xlink="http://www.w3.org/1999/xlink" x="0px"
	 y="0px" viewBox="0 0 100 100" xml:space="preserve">
<g id="bg_6_">
	<polygon id="bg_5_" fill="#FFFFFF" points="10.5795,27.33579 10.5795,72.96069 50.09224,95.77315 89.60497,72.96069 
		89.60497,27.33579 50.09224,4.52344 	"/>
</g>
<g id="active">
	<path id="a_x5F_right" fill="#201F50" d="M74.64768,68.82549c2.41055-1.39062,3.89828-3.96513,3.89828-6.74822V38.21973
		c0-2.78309-1.48774-5.35586-3.89828-6.74822L53.98889,19.54269c-1.20568-0.69618-2.55117-1.04346-3.89665-1.04346v63.29854
		c1.34549,0,2.69097-0.34727,3.89665-1.04346L74.64768,68.82549z"/>
	<path id="a_x5F_left" fill="#353575" d="M50.09224,18.49918c-1.34569-0.0001-2.69138,0.34809-3.89665,1.04437L25.53516,31.47227
		c-2.41095,1.39247-3.89666,3.96513-3.89666,6.74822V62.0764c0,2.78483,1.4857,5.3576,3.89666,6.74995l20.66043,11.92709
		c1.20527,0.69628,2.55096,1.04447,3.89665,1.04437V18.49918z"/>
</g>
<g id="inactive_1_" display="none">
	<path id="ia_x5F_right" display="inline" fill="#9FA8B0" d="M74.64768,68.82549c2.41055-1.39062,3.89828-3.96513,3.89828-6.74822
		V38.21973c0-2.78309-1.48774-5.35586-3.89828-6.74822L53.98889,19.54269c-1.20568-0.69618-2.55117-1.04346-3.89665-1.04346
		v63.29854c1.34549,0,2.69097-0.34727,3.89665-1.04346L74.64768,68.82549z"/>
	<path id="ia_x5F_left" display="inline" fill="#AFB6BD" d="M50.09224,18.49918c-1.34569-0.0001-2.69138,0.34809-3.89665,1.04437
		L25.53516,31.47227c-2.41095,1.39247-3.89666,3.96513-3.89666,6.74822V62.0764c0,2.78483,1.4857,5.3576,3.89666,6.74995
		l20.66043,11.92709c1.20527,0.69628,2.55096,1.04447,3.89665,1.04437V18.49918z"/>
</g>
<g id="broken" display="none">
	<path id="b_x5F_right" display="inline" fill="#B1212B" d="M74.64768,68.82549c2.41055-1.39062,3.89828-3.96513,3.89828-6.74822
		V38.21973c0-2.78309-1.48774-5.35586-3.89828-6.74822L53.98889,19.54269c-1.20568-0.69618-2.55117-1.04346-3.89665-1.04346
		v63.29854c1.34549,0,2.69097-0.34727,3.89665-1.04346L74.64768,68.82549z"/>
	<path id="b_x5F_left" display="inline" fill="#D42933" d="M50.09224,18.49918c-1.34569-0.0001-2.69138,0.34809-3.89665,1.04437
		L25.53516,31.47227c-2.41095,1.39247-3.89666,3.96513-3.89666,6.74822V62.0764c0,2.78483,1.4857,5.3576,3.89666,6.74995
		l20.66043,11.92709c1.20527,0.69628,2.55096,1.04447,3.89665,1.04437V18.49918z"/>
</g>
<g id="selected_1_" display="none">
	<polygon id="sel_x5F_path_17_" display="inline" fill="#2B2A63" points="12.24924,31.50987 8.91018,31.50987 8.91018,26.37248 
		13.35954,23.80297 15.02907,26.6953 12.24924,28.29961 	"/>
	<path id="sel_x5F_path_16_" display="inline" fill="#2B2A63" d="M12.24924,61.33151H8.91018v-7.45582h3.33906V61.33151z"/>
	<polygon id="sel_x5F_path_14_" display="inline" fill="#2B2A63" points="13.35954,76.49423 8.91018,73.92472 8.91018,68.78733 
		12.24924,68.78733 12.24924,71.99759 15.02907,73.6019 	"/>
	<path id="sel_x5F_path_15_" display="inline" fill="#2B2A63" d="M39.18589,91.40424l-6.45638-3.7271l1.66953-2.89233
		l6.45638,3.7271L39.18589,91.40424z"/>
	<polygon id="sel_x5F_path_13_" display="inline" fill="#2B2A63" points="50.09245,97.70084 45.64309,95.13296 47.31262,92.24063 
		50.09245,93.84657 52.87146,92.24063 54.54099,95.13296 	"/>
	<path id="sel_x5F_path_12_" display="inline" fill="#2B2A63" d="M73.91177,83.94842l-1.66953-2.89233l6.45802-3.7271
		l1.66953,2.89233L73.91177,83.94842z"/>
	<polygon id="sel_x5F_path_11_" display="inline" fill="#2B2A63" points="86.82454,76.49423 85.15501,73.6019 87.93484,71.99759 
		87.93484,68.78733 91.2739,68.78733 91.2739,73.92472 	"/>
	<path id="sel_x5F_path_10_" display="inline" fill="#2B2A63" d="M91.2739,61.33151h-3.33906v-7.45582h3.33906V61.33151z"/>
	<polygon id="sel_x5F_path_9_" display="inline" fill="#2B2A63" points="91.2739,31.50987 87.93484,31.50987 87.93484,28.29961 
		85.15501,26.6953 86.82454,23.80297 91.2739,26.37248 	"/>
	<path id="sel_x5F_path_8_" display="inline" fill="#2B2A63" d="M78.69862,22.96739l-6.45638-3.72791l1.66953-2.89233
		l6.45638,3.72791L78.69862,22.96739z"/>
	<polygon id="sel_x5F_path_7_" display="inline" fill="#2B2A63" points="47.31262,8.05657 45.64309,5.16424 50.09245,2.59555 
		54.54099,5.16424 52.87146,8.05657 50.09245,6.45144 	"/>
	<path id="sel_x5F_path_6_" display="inline" fill="#2B2A63" d="M34.39904,15.51239l-1.66953-2.89233l6.45638-3.72791
		l1.66953,2.89233L34.39904,15.51239z"/>
	
		<rect id="sel_x5F_path_5_" x="61.72264" y="8.47378" transform="matrix(0.50003 -0.86601 0.86601 0.50003 21.12766 60.99864)" display="inline" fill="#2B2A63" width="3.3396" height="7.45535"/>
	<rect id="sel_x5F_path_4_" x="8.91018" y="38.96487" display="inline" fill="#2B2A63" width="3.33906" height="7.45582"/>
	<rect id="sel_x5F_path_3_" x="87.93484" y="38.96487" display="inline" fill="#2B2A63" width="3.33906" height="7.45582"/>
	
		<rect id="sel_x5F_path_2_" x="20.15121" y="17.98747" transform="matrix(0.86607 -0.49992 0.49992 0.86607 -6.629 14.57019)" display="inline" fill="#2B2A63" width="7.45535" height="3.3396"/>
	
		<rect id="sel_x5F_path_1_" x="22.20908" y="76.91124" transform="matrix(0.49995 -0.86605 0.86605 0.49995 -57.89687 61.00383)" display="inline" fill="#2B2A63" width="3.3396" height="7.45494"/>
	
		<rect id="sel_x5F_path" x="59.66497" y="86.42473" transform="matrix(0.86607 -0.49992 0.49992 0.86607 -35.55015 43.48947)" display="inline" fill="#2B2A63" width="7.45494" height="3.3396"/>
</g>
</svg>
